<?xml version="1.0" encoding="UTF-8"?>
<!DOCTYPE svg PUBLIC "-//W3C//DTD SVG 1.1//EN" "http://www.w3.org/Graphics/SVG/1.1/DTD/svg11.dtd">
<!-- Creator: CorelDRAW 2020 (64-Bit) -->
<svg xmlns="http://www.w3.org/2000/svg" xml:space="preserve" width="9.6696mm" height="7.7441mm" version="1.1" style="shape-rendering:geometricPrecision; text-rendering:geometricPrecision; image-rendering:optimizeQuality; fill-rule:evenodd; clip-rule:evenodd"
viewBox="0 0 4.89 3.92"
 xmlns:xlink="http://www.w3.org/1999/xlink"
 xmlns:xodm="http://www.corel.com/coreldraw/odm/2003">
 <defs>
  <style type="text/css">
   <![CDATA[
    .fil0 {fill:#FEFEFE}
    .fil1 {fill:#3CAEE3}
   ]]>
  </style>
 </defs>
 <g id="Layer_x0020_1">
  <metadata id="CorelCorpID_0Corel-Layer"/>
  <path class="fil0" d="M2.14 3.12l0 -0.83 2.44 0 0 -0.71 -2.44 0 0 -0.84 2.69 -0.01 0 -0.73 -3.59 0.01 0 2.92c0,0.54 0.44,0.98 0.99,0.98l2.66 0 0 -0.73 -2.92 0 0.16 -0.08z"/>
  <path class="fil1" d="M-0 0.74l1.53 0 -0.29 0.14 0 2.05c0,0.51 0.4,0.94 0.9,0.98l0 -3.18 1.26 0 0 -0.73 -3.41 0 0 0.73z"/>
 </g>
</svg>
